<?xml version="1.0" encoding="utf-8"?>
<!-- Generator: Adobe Illustrator 22.1.0, SVG Export Plug-In . SVG Version: 6.00 Build 0)  -->
<svg version="1.1" id="OBJECTS" xmlns="http://www.w3.org/2000/svg" xmlns:xlink="http://www.w3.org/1999/xlink" x="0px" y="0px"
	 viewBox="0 0 284.2 242.6" style="enable-background:new 0 0 284.2 242.6;" xml:space="preserve">
<style type="text/css">
	.st0{fill:#F4F4F4;}
	.st1{fill:url(#SVGID_1_);}
	.st2{fill:#3878FF;}
	.st3{fill:#59C09B;}
	.st4{fill:#1F1F89;}
	.st5{fill:#F7F5EF;}
	.st6{fill:#8E574A;}
	.st7{fill:#F76D59;}
	.st8{opacity:0.5;fill:none;stroke:#0A5DE2;stroke-width:1.4239;stroke-linecap:round;stroke-miterlimit:10;}
	.st9{fill:#AFC6F5;}
	.st10{fill:#0A5DE2;}
	.st11{fill:#2B159B;}
	.st12{opacity:0.4;}
	.st13{fill:#307F61;}
	.st14{fill:url(#SVGID_2_);}
	.st15{fill:#B0D8FF;}
	.st16{fill:#BCCCFD;}
	.st17{fill:url(#SVGID_3_);}
</style>
<polygon class="st0" points="31.5,166.1 30.7,172.7 26,184.8 30.3,186.1 33.6,173.5 34,166.4 "/>
<linearGradient id="SVGID_1_" gradientUnits="userSpaceOnUse" x1="-57.7934" y1="204.414" x2="-58.8889" y2="223.5062" gradientTransform="matrix(-1 0 0 1 -31.8541 0)">
	<stop  offset="3.252340e-03" style="stop-color:#241084"/>
	<stop  offset="0.9896" style="stop-color:#0A5DE2"/>
</linearGradient>
<polygon class="st1" points="21.5,198 23.6,219 22.9,237.4 30.1,237.4 30.5,236.1 25.6,235.4 28.2,219.1 30.5,198.8 "/>
<polygon class="st2" points="19.2,197.8 17.5,215.6 6.6,230.2 7.9,237 11.2,237 9.2,235.6 8.9,231.2 19.3,219.4 28.8,198.3 "/>
<polygon class="st3" points="34,166.4 33.9,159.7 32.5,159.6 31.5,166.1 "/>
<path class="st3" d="M21,175.6c-0.5,2.4-0.5,6.1,3.1,6.7c3.6,0.6,5.8-1.7,6.3-4.1c0.5-2.4-0.4-5.5-4.1-6
	C23.9,171.9,21.4,173.7,21,175.6z"/>
<path class="st4" d="M23.6,182.1c-2.6-0.7-3.6-3.2-3.2-5.7c0.5-3.1,3.5-4.8,5.9-4.2c0.1,0,0.3,0.1,0.4,0.1c0,0.4,0,0.8-0.1,1.1
	c-0.4,1.2-1.5,2.2-2.7,2.6C24,175.9,23.2,181.4,23.6,182.1z"/>
<path class="st3" d="M23.3,176.4c-0.4-0.1-0.7,0-1.1,0.2c-1,0.6-0.7,2.1,0.2,2.6c0.3,0.2,0.6,0.2,1,0.3c0.3,0,0.6,0,0.9-0.1
	c0.2-0.1,0.4-0.4,0.4-0.7c0.1-0.3,0-0.6,0-0.8C24.6,177.2,24,176.5,23.3,176.4z"/>
<path class="st5" d="M27.3,174.9c0.3,0.9,1.1,1.4,1.8,1.1c0.7-0.2,0.9-1.2,0.6-2c-0.3-0.9-1.1-1.4-1.8-1.1
	C27.2,173.1,26.9,174,27.3,174.9z"/>
<path class="st6" d="M31.8,158.8c0,0.8,0.7,1.5,1.5,1.5c0.8,0,1.5-0.7,1.5-1.5c0-0.8-0.7-1.5-1.5-1.5
	C32.4,157.3,31.8,158,31.8,158.8z"/>
<path class="st5" d="M38.8,168.9l-2.3,0.8c-0.9,2.7-2.5,5.1-4.5,7.1l-4.3,4.2l-5.3,3.6L18.6,199l12.2,1.2l0.4-16l4.5-5.7
	c1.9-2.3,3.1-5.1,3.7-8L38.8,168.9z"/>
<path class="st5" d="M44.6,132.8h-17c-2.9,0-5.3,2.4-5.3,5.3v17c0,2.9,2.4,5.3,5.3,5.3h17c2.9,0,5.3-2.4,5.3-5.3v-17
	C49.9,135.1,47.5,132.8,44.6,132.8z"/>
<path class="st7" d="M39.3,159.8c0,0.8,0.7,1.5,1.5,1.5c0.8,0,1.5-0.7,1.5-1.5c0-0.8-0.7-1.5-1.5-1.5C40,158.3,39.3,159,39.3,159.8z
	"/>
<polygon class="st3" points="36.3,170.5 39.3,171.5 41.7,160.5 40,160.1 "/>
<path class="st3" d="M42.8,143.1c0,3.9-7,14.1-7,14.1s-7-10.3-7-14.1c0-3.9,3.1-7,7-7C39.7,136.1,42.8,139.3,42.8,143.1z"/>
<path class="st5" d="M39.1,142.5c0,1.9-1.5,3.4-3.4,3.4s-3.4-1.5-3.4-3.4s1.5-3.4,3.4-3.4S39.1,140.7,39.1,142.5z"/>
<line class="st8" x1="0.7" y1="237.3" x2="54.8" y2="237.3"/>
<path class="st5" d="M170.1,33h-59.8c-3.4,0-6.1,2.7-6.1,6.1v143c0,3.4,2.7,6.1,6.1,6.1h59.8c3.4,0,6.1-2.7,6.1-6.1v-143
	C176.3,35.7,173.5,33,170.1,33z"/>
<path class="st4" d="M170.1,33h-59.8c-3.4,0-6.1,2.7-6.1,6.1v6.2h72v-6.2C176.3,35.7,173.5,33,170.1,33z"/>
<path class="st4" d="M104.2,174.3v7.8c0,3.4,2.7,6.1,6.1,6.1h59.8c3.4,0,6.1-2.7,6.1-6.1v-7.8H104.2z"/>
<path class="st3" d="M164.9,49.5h-17c-2.9,0-5.3,2.4-5.3,5.3v17c0,2.9,2.4,5.3,5.3,5.3h17c2.9,0,5.3-2.4,5.3-5.3v-17
	C170.2,51.8,167.9,49.5,164.9,49.5z"/>
<path class="st9" d="M164.9,133.2h-17c-2.9,0-5.3,2.4-5.3,5.3v17c0,2.9,2.4,5.3,5.3,5.3h17c2.9,0,5.3-2.4,5.3-5.3v-17
	C170.2,135.5,167.9,133.2,164.9,133.2z"/>
<path class="st3" d="M132.4,133.2h-17c-2.9,0-5.3,2.4-5.3,5.3v17c0,2.9,2.4,5.3,5.3,5.3h17c2.9,0,5.3-2.4,5.3-5.3v-17
	C137.7,135.5,135.3,133.2,132.4,133.2z"/>
<line class="st8" x1="104" y1="188.9" x2="181.6" y2="188.9"/>
<g>
	<g>
		<g>
			
				<rect x="198.6" y="134.6" transform="matrix(0.9865 -0.164 0.164 0.9865 -24.1038 34.8333)" class="st4" width="0.7" height="57.7"/>
		</g>
		<g>
			
				<rect x="181.2" y="134.6" transform="matrix(0.9865 -0.164 0.164 0.9865 -24.3404 31.9901)" class="st4" width="0.7" height="57.7"/>
		</g>
		<g>
			<rect x="178.9" y="146.7" class="st4" width="17.5" height="0.7"/>
		</g>
		<g>
			<rect x="180.1" y="154.3" class="st4" width="17.5" height="0.7"/>
		</g>
		<g>
			<rect x="181.4" y="161.9" class="st4" width="17.5" height="0.7"/>
		</g>
		<g>
			<rect x="182.6" y="169.5" class="st4" width="17.5" height="0.7"/>
		</g>
		<g>
			<rect x="183.9" y="177.1" class="st4" width="17.5" height="0.7"/>
		</g>
		<g>
			<rect x="185.1" y="184.7" class="st4" width="17.5" height="0.7"/>
		</g>
	</g>
	<g>
		<g>
			
				<rect x="142.8" y="163.1" transform="matrix(0.1641 -0.9864 0.9864 0.1641 -17.7449 305.9246)" class="st2" width="57.7" height="0.7"/>
		</g>
		<g>
			
				<rect x="160.2" y="163.1" transform="matrix(0.1641 -0.9864 0.9864 0.1641 -3.2442 323.0365)" class="st2" width="57.7" height="0.7"/>
		</g>
		<g>
			<rect x="174.2" y="146.7" class="st2" width="17.5" height="0.7"/>
		</g>
		<g>
			<rect x="173" y="154.3" class="st2" width="17.5" height="0.7"/>
		</g>
		<g>
			<rect x="171.7" y="161.9" class="st2" width="17.5" height="0.7"/>
		</g>
		<g>
			<rect x="170.5" y="169.5" class="st2" width="17.5" height="0.7"/>
		</g>
		<g>
			<rect x="169.2" y="177.1" class="st2" width="17.5" height="0.7"/>
		</g>
		<g>
			<rect x="168" y="184.7" class="st2" width="17.5" height="0.7"/>
		</g>
	</g>
	<g>
		<rect x="174.9" y="134.1" class="st10" width="21.4" height="2.1"/>
	</g>
</g>
<polygon class="st5" points="214.9,124.5 212.9,103 210.2,80 212.3,79.7 217,101.5 224.5,102.1 232.3,80 234.4,80.3 228.7,103.9 
	229,123.9 "/>
<path class="st3" d="M217.6,95.1c-0.6,2.1,0.3,5.4,2.4,5.9c2.1,0.6,4.5-1.8,5.1-3.9c0.6-2.1-0.6-4.2-2.7-4.8
	C220.3,91.9,218.2,93.1,217.6,95.1z"/>
<path class="st11" d="M220.4,93.9c-0.4-0.1-1-0.4-1.2-0.8c0,0,0-0.1,0-0.1c0.9-0.7,2.1-0.9,3.3-0.6c2.1,0.6,3.3,2.7,2.7,4.8
	c-0.4,1.5-1.8,3.1-3.3,3.7c0-0.4,0.1-0.8,0.2-1.2c0.4-1.6,0.9-3.2,1.4-4.8C222.4,94.6,221.4,94.3,220.4,93.9z"/>
<path class="st3" d="M222.8,97.1c0.3-0.2,0.7-0.3,1-0.2c0.1,0,0.1,0.1,0.2,0.1c0.2,0.2,0.2,0.4,0.2,0.6c-0.1,0.6-0.5,1.1-1.1,1.3
	c-0.2,0.1-0.3,0.1-0.5,0.1c-0.2,0-0.3-0.1-0.4-0.2C221.7,98.2,222.4,97.4,222.8,97.1z"/>
<polygon class="st2" points="229,123.9 226.9,156.9 224.6,156.9 222.7,124.2 220.7,124.3 219.4,157.7 217.7,157.7 214.9,124.5 
	214.6,120.4 228.9,120.6 "/>
<polygon class="st2" points="226.9,156.9 231.9,157.5 231.8,158.2 224.4,158.2 224.6,156.9 "/>
<polygon class="st2" points="219.4,157.7 219.4,158.6 212.5,158.9 212.5,158 217.7,157.7 "/>
<path class="st11" d="M221.3,97.9c-1.3,0.1-2.3-1.1-3.5-1.3c-0.1,0-0.2,0-0.2,0c-0.1,0-0.1,0.1-0.2,0.2c-0.2,0.3-0.3,0.6-0.5,0.9
	c-0.2,0.3-0.3,0.6-0.4,1c-0.1,0.4,0,0.8,0,1.3c0.1,0.3,0.1,0.7,0.3,1c0.3,0.5,0.8,0.9,1.3,1.1c0.6,0.2,1.2,0.2,1.8,0.2
	c0.4,0,0.8-0.1,1.2-0.3c0.8-0.4,1.3-1.4,1.2-2.3c0-0.2-0.1-0.4-0.1-0.7c0-0.2,0.1-0.4,0.2-0.6c0.1-0.2,1-1.3,0.3-1.3
	c-0.2,0-0.5,0.3-0.7,0.4C221.9,97.8,221.6,97.9,221.3,97.9z"/>
<g class="st12">
	<polygon class="st9" points="229.6,87.6 232.6,87.6 234.4,80.3 232.3,80 	"/>
	<polygon class="st9" points="212.3,79.7 210.2,80 211.1,87.6 214,87.6 	"/>
</g>
<path class="st2" d="M263.3,56.5h-69.6c-3.4,0-6.2,2.8-6.2,6.2V73c0,3.4,2.8,6.2,6.2,6.2h69.6c3.4,0,6.2-2.8,6.2-6.2V62.6
	C269.5,59.2,266.8,56.5,263.3,56.5z"/>
<path class="st5" d="M261.3,56.5h-69.6c-3.4,0-6.2,2.8-6.2,6.2V73c0,3.4,2.8,6.2,6.2,6.2h69.6c3.4,0,6.2-2.8,6.2-6.2V62.6
	C267.5,59.2,264.7,56.5,261.3,56.5z"/>
<path class="st9" d="M262.3,73.9l-3.3-3.5c0.9-1,1.3-2.3,1.3-3.6c0-3.1-2.5-5.7-5.7-5.7c-3.1,0-5.7,2.5-5.7,5.7
	c0,3.1,2.5,5.7,5.7,5.7c1.2,0,2.3-0.4,3.2-1l3.4,3.5c0.1,0.1,0.3,0.2,0.5,0.2c0.2,0,0.4-0.1,0.5-0.2
	C262.6,74.7,262.6,74.2,262.3,73.9L262.3,73.9z M254.6,62.6c2.3,0,4.2,1.9,4.2,4.2c0,2.3-1.9,4.2-4.2,4.2c-2.3,0-4.2-1.9-4.2-4.2
	C250.4,64.5,252.3,62.6,254.6,62.6L254.6,62.6z M254.6,62.6"/>
<line class="st8" x1="192.2" y1="159" x2="266.3" y2="159"/>
<path class="st3" d="M212.7,78.8c0,1-0.8,1.8-1.8,1.8c-1,0-1.8-0.8-1.8-1.8c0-1,0.8-1.8,1.8-1.8C211.9,77,212.7,77.8,212.7,78.8z"/>
<path class="st3" d="M234.4,79.3c0,1-0.8,1.8-1.8,1.8c-1,0-1.8-0.8-1.8-1.8c0-1,0.8-1.8,1.8-1.8C233.6,77.5,234.4,78.3,234.4,79.3z"
	/>
<path class="st9" d="M147,84.6c0.4,1-0.1,2.1-1.1,2.5c-1,0.4-2.1-0.1-2.5-1.1c-0.4-1,0.1-2.1,1.1-2.5
	C145.5,83.1,146.6,83.6,147,84.6z"/>
<path class="st2" d="M141.1,76l-16.8-2.9c-2.9-0.5-5.6,1.4-6.1,4.3l-2.9,16.8c-0.5,2.9,1.4,5.6,4.3,6.1l16.8,2.9
	c2.9,0.5,5.6-1.4,6.1-4.3l2.9-16.8C145.9,79.3,143.9,76.5,141.1,76z"/>
<g>
	<path class="st2" d="M59.9,171.2h12.3c0.3,0,0.5-0.2,0.7-0.4c0.1-0.3,0.1-0.6-0.1-0.8l-11.9-12.8l-1,1l10.8,11.6H59.9V171.2z"/>
</g>
<polygon class="st13" points="146.6,84.8 151.8,86.9 167.3,88.3 162.1,92 151.3,89.4 145.8,86.8 "/>
<path class="st9" d="M165.2,82.5c0.9,2.2-0.3,4.7-2.5,5.6c-2.2,0.9-4.7-0.3-5.6-2.5c-0.9-2.2,0.3-4.7,2.5-5.6
	C161.8,79.1,164.3,80.2,165.2,82.5z"/>
<linearGradient id="SVGID_2_" gradientUnits="userSpaceOnUse" x1="178.0987" y1="110.1171" x2="174.9874" y2="129.2641">
	<stop  offset="3.252340e-03" style="stop-color:#241084"/>
	<stop  offset="0.9896" style="stop-color:#0A5DE2"/>
</linearGradient>
<polygon class="st14" points="181.3,100.3 179.6,118.3 180.1,134.1 174,134.1 173.7,132.9 177.9,132.4 175.7,118.4 173.6,101 "/>
<path class="st3" d="M144.1,86.7c2.3,0.9,9.8,2.9,12.3,2.7l5.1-0.4l5.3-1.4l11.5,5.7l-6.2,8.5L161.6,93l-6.2-0.3
	c-2.6-0.1-9.8-2.9-12-4.2L144.1,86.7z"/>
<path class="st4" d="M165.8,81.4c-0.9-2-4.5-2.5-6.5-1.6c-0.1,0.1-0.2,0.1-0.3,0.2c0,0.3,0.1,0.7,0.3,0.9c0.6,1,1.7,1.6,2.9,1.7
	c0,0,0.1,0.2,0.2,0.6c0.1-0.1,0.3-0.3,0.5-0.3c0.3-0.1,0.7-0.1,1,0c1,0.3,1,1.7,0.3,2.4c-0.2,0.2-0.5,0.3-0.8,0.4c0,0-0.1,0-0.1,0
	c-0.1,1.4,0,1.6,0.3,2C165.1,86.4,167,84,165.8,81.4z"/>
<polygon class="st2" points="200.2,97.9 189.9,102.4 178,93.3 171.9,101.7 189.8,107.2 200.5,100 202.8,102.6 203.5,101.8 "/>
<path class="st9" d="M144.7,86.6c0.4,1-0.1,2.1-1.1,2.5c-1,0.4-2.1-0.1-2.5-1.1c-0.4-1,0.1-2.1,1.1-2.5
	C143.2,85.1,144.3,85.6,144.7,86.6z"/>
<g>
	<path class="st2" d="M59.2,36.9h13.9v140H59.2V36.9z M71.7,38.4H60.7v137.2h11.1V38.4z"/>
</g>
<rect x="57.3" y="169.5" transform="matrix(-1 -1.224647e-16 1.224647e-16 -1 132.3873 351.6424)" class="st5" width="17.7" height="12.7"/>
<g>
	<path class="st2" d="M59.9,118.6h12.3c0.3,0,0.5-0.2,0.7-0.4s0.1-0.6-0.1-0.8l-11.9-12.8l-1,1l10.8,11.6H59.9V118.6z"/>
</g>
<g>
	<path class="st2" d="M59.9,131.7h12.3c0.3,0,0.5-0.2,0.7-0.4c0.1-0.3,0.1-0.6-0.1-0.8l-11.9-12.8l-1,1l10.8,11.6H59.9V131.7z"/>
</g>
<g>
	<path class="st2" d="M59.9,144.9h12.3c0.3,0,0.5-0.2,0.7-0.4c0.1-0.3,0.1-0.6-0.1-0.8l-11.9-12.8l-1,1l10.8,11.6H59.9V144.9z"/>
</g>
<g>
	<path class="st2" d="M59.9,158h12.3c0.3,0,0.5-0.2,0.7-0.4s0.1-0.6-0.1-0.8L60.9,144l-1,1l10.8,11.6H59.9V158z"/>
</g>
<g>
	<path class="st2" d="M59.9,105.7h12.3c0.3,0,0.5-0.2,0.7-0.4c0.1-0.3,0.1-0.6-0.1-0.8L60.9,91.7l-1,1l10.8,11.6H59.9V105.7z"/>
</g>
<g>
	<path class="st2" d="M59.9,92.9h12.3c0.3,0,0.5-0.2,0.7-0.4c0.1-0.3,0.1-0.6-0.1-0.8L60.9,78.9l-1,1l10.8,11.6H59.9V92.9z"/>
</g>
<g>
	<path class="st2" d="M59.9,80h12.3c0.3,0,0.5-0.2,0.7-0.4c0.1-0.3,0.1-0.6-0.1-0.8L60.9,66l-1,1l10.8,11.6H59.9V80z"/>
</g>
<g>
	<path class="st2" d="M59.9,67.2h12.3c0.3,0,0.5-0.2,0.7-0.4c0.1-0.3,0.1-0.6-0.1-0.8L60.9,53.2l-1,1l10.8,11.6H59.9V67.2z"/>
</g>
<g>
	<path class="st2" d="M59.9,54.4h12.3c0.3,0,0.5-0.2,0.7-0.4c0.1-0.3,0.1-0.6-0.1-0.8L60.9,40.3l-1,1l10.8,11.6H59.9V54.4z"/>
</g>
<g>
	<path class="st2" d="M59.9,41.5h12.3c0.3,0,0.5-0.2,0.7-0.4s0.1-0.6-0.1-0.8L60.9,27.5l-1,1l10.8,11.6H59.9V41.5z"/>
</g>
<rect x="59.3" y="22.7" transform="matrix(-1 -1.224647e-16 1.224647e-16 -1 141.0866 64.5054)" class="st4" width="22.6" height="19"/>
<rect x="25.3" y="22.7" transform="matrix(-1 -1.224647e-16 1.224647e-16 -1 73.2151 56.4028)" class="st4" width="22.6" height="10.9"/>
<g>
	<path class="st2" d="M25.7,24.1h111.5c0.4,0,0.7-0.3,0.7-0.7s-0.3-0.7-0.7-0.7H25.7c-0.4,0-0.7,0.3-0.7,0.7S25.3,24.1,25.7,24.1z"
		/>
</g>
<g>
	<rect x="131.3" y="26.7" class="st2" width="0.7" height="46.3"/>
</g>
<path class="st15" d="M65.6,22.9"/>
<rect x="51.3" y="179.9" transform="matrix(-1 -1.224647e-16 1.224647e-16 -1 132.3872 365.4068)" class="st2" width="29.8" height="5.6"/>
<g>
	<path class="st2" d="M70.5,23.9c0.1,0,0.2,0,0.3-0.1l5.9-5.9h54.5l5.6,5.6c0.1,0.1,0.4,0.1,0.5,0c0.1-0.1,0.1-0.4,0-0.5l-5.8-5.8
		H76.4l-6.2,6.2c-0.1,0.1-0.1,0.4,0,0.5C70.3,23.9,70.4,23.9,70.5,23.9z"/>
</g>
<g>
	<path class="st2" d="M25.2,23.9c0.1,0,0.3-0.1,0.3-0.2l6-11.4h14.4l5.6,11c0.1,0.2,0.3,0.2,0.5,0.2c0.2-0.1,0.2-0.3,0.2-0.5
		l-5.8-11.4H31.1l-6.2,11.8c-0.1,0.2,0,0.4,0.2,0.5C25.1,23.9,25.2,23.9,25.2,23.9z"/>
</g>
<path class="st5" d="M129.1,26.7c0,1.4,1.2,2.6,2.6,2.6c1.4,0,2.6-1.2,2.6-2.6c0-1.4-1.2-2.6-2.6-2.6
	C130.3,24.1,129.1,25.3,129.1,26.7z"/>
<g>
	<path class="st2" d="M116.3,17.9c0.2,0,0.3-0.1,0.3-0.3c0.1-0.2,0-0.4-0.2-0.4L63.7,1.1c-0.1,0-0.2,0-0.2,0l-25,10.5
		c-0.2,0.1-0.3,0.3-0.2,0.5c0.1,0.2,0.3,0.3,0.5,0.2L63.6,1.8l52.6,16C116.2,17.9,116.2,17.9,116.3,17.9z"/>
</g>
<g>
	<path class="st2" d="M71.8,24c0.1,0,0.2,0,0.3,0c0.4-0.1,0.6-0.6,0.4-0.9L64.2,1.2c-0.1-0.3-0.4-0.5-0.7-0.5
		c-0.3,0-0.6,0.3-0.6,0.6l-4.3,21.3c-0.1,0.4,0.2,0.8,0.6,0.8c0.4,0.1,0.8-0.2,0.8-0.6L63.8,4l7.4,19.5C71.3,23.8,71.6,24,71.8,24z"
		/>
</g>
<path class="st16" d="M62.1,1.4c0,0.8,0.6,1.4,1.4,1.4c0.8,0,1.4-0.6,1.4-1.4S64.3,0,63.5,0C62.8,0,62.1,0.6,62.1,1.4z"/>
<g>
	<path class="st2" d="M123.8,24c0.1,0,0.2,0,0.2-0.1l7-5.7v5.3c0,0.2,0.2,0.4,0.4,0.4c0.2,0,0.4-0.2,0.4-0.4v-6
		c0-0.1-0.1-0.3-0.2-0.3c-0.1-0.1-0.3,0-0.4,0l-7.6,6.1c-0.2,0.1-0.2,0.3-0.1,0.5C123.6,24,123.7,24,123.8,24z"/>
</g>
<g>
	<path class="st2" d="M117,24c0.1,0,0.2,0,0.2-0.1l7-5.7v5.3c0,0.2,0.2,0.4,0.4,0.4c0.2,0,0.4-0.2,0.4-0.4v-6c0-0.1-0.1-0.3-0.2-0.3
		c-0.1-0.1-0.3,0-0.4,0l-7.6,6.1c-0.2,0.1-0.2,0.3-0.1,0.5C116.8,24,116.9,24,117,24z"/>
</g>
<g>
	<path class="st2" d="M110.2,24c0.1,0,0.2,0,0.2-0.1l7-5.7v5.3c0,0.2,0.2,0.4,0.4,0.4c0.2,0,0.4-0.2,0.4-0.4v-6
		c0-0.1-0.1-0.3-0.2-0.3c-0.1-0.1-0.3,0-0.4,0l-7.6,6.1c-0.2,0.1-0.2,0.3-0.1,0.5C110,24,110.1,24,110.2,24z"/>
</g>
<g>
	<path class="st2" d="M103.5,24c0.1,0,0.2,0,0.2-0.1l7-5.7v5.3c0,0.2,0.2,0.4,0.4,0.4c0.2,0,0.4-0.2,0.4-0.4v-6
		c0-0.1-0.1-0.3-0.2-0.3c-0.1-0.1-0.3,0-0.4,0l-7.6,6.1c-0.2,0.1-0.2,0.3-0.1,0.5C103.3,24,103.4,24,103.5,24z"/>
</g>
<g>
	<path class="st2" d="M96.7,24c0.1,0,0.2,0,0.2-0.1l7-5.7v5.3c0,0.2,0.2,0.4,0.4,0.4c0.2,0,0.4-0.2,0.4-0.4v-6
		c0-0.1-0.1-0.3-0.2-0.3c-0.1-0.1-0.3,0-0.4,0l-7.6,6.1c-0.2,0.1-0.2,0.3-0.1,0.5C96.5,24,96.6,24,96.7,24z"/>
</g>
<g>
	<path class="st2" d="M90,24c0.1,0,0.2,0,0.2-0.1l7-5.7v5.3c0,0.2,0.2,0.4,0.4,0.4c0.2,0,0.4-0.2,0.4-0.4v-6c0-0.1-0.1-0.3-0.2-0.3
		c-0.1-0.1-0.3,0-0.4,0l-7.6,6.1c-0.2,0.1-0.2,0.3-0.1,0.5C89.8,24,89.9,24,90,24z"/>
</g>
<g>
	<path class="st2" d="M83.2,24c0.1,0,0.2,0,0.2-0.1l7-5.7v5.3c0,0.2,0.2,0.4,0.4,0.4s0.4-0.2,0.4-0.4v-6c0-0.1-0.1-0.3-0.2-0.3
		c-0.1-0.1-0.3,0-0.4,0L83,23.4c-0.2,0.1-0.2,0.3-0.1,0.5C83,24,83.1,24,83.2,24z"/>
</g>
<g>
	<path class="st2" d="M76.4,24c0.1,0,0.2,0,0.2-0.1l7-5.7v5.3c0,0.2,0.2,0.4,0.4,0.4c0.2,0,0.4-0.2,0.4-0.4v-6
		c0-0.1-0.1-0.3-0.2-0.3c-0.1-0.1-0.3,0-0.4,0l-7.6,6.1c-0.2,0.1-0.2,0.3-0.1,0.5C76.2,24,76.3,24,76.4,24z"/>
</g>
<g>
	<path class="st2" d="M36.5,24c0.1,0,0.2,0,0.3-0.1l9.1-10.7v10.4c0,0.2,0.2,0.4,0.4,0.4c0.2,0,0.4-0.2,0.4-0.4V12.2
		c0-0.1-0.1-0.3-0.2-0.3c-0.1-0.1-0.3,0-0.4,0.1l-9.7,11.5c-0.1,0.1-0.1,0.4,0,0.5C36.3,24,36.4,24,36.5,24z"/>
</g>
<g>
	<path class="st2" d="M29.5,24c0.1,0,0.2-0.1,0.3-0.2l6.9-10.5v10.2c0,0.2,0.2,0.4,0.4,0.4c0.2,0,0.4-0.2,0.4-0.4V12.2
		c0-0.2-0.1-0.3-0.3-0.3c-0.2,0-0.3,0-0.4,0.1l-7.6,11.5c-0.1,0.2-0.1,0.4,0.1,0.5C29.4,24,29.4,24,29.5,24z"/>
</g>
<path class="st4" d="M129.5,74c0,1.2,1,2.2,2.2,2.2c1.2,0,2.2-1,2.2-2.2c0-1.2-1-2.2-2.2-2.2C130.5,71.7,129.5,72.7,129.5,74z"/>
<line class="st8" x1="38.4" y1="186" x2="92.6" y2="186"/>
<polygon class="st3" points="263.7,209.1 262.9,197.9 264.1,189.7 268.4,165.5 266.3,165.2 261.6,186.5 254.3,187.1 246.7,165.5 
	244.7,165.8 250.2,188.9 252.2,197.7 251.9,208.5 "/>
<polygon class="st4" points="253.6,179.2 252.9,185.6 257.2,185.9 259.9,179.2 "/>
<path class="st5" d="M261.6,181.6c0,2.4-2,4.4-4.4,4.4c-2.4,0-4.4-2-4.4-4.4c0-2.4,2-4.4,4.4-4.4
	C259.6,177.2,261.6,179.1,261.6,181.6z"/>
<path class="st10" d="M265.3,138.5h-17c-2.9,0-5.3,2.4-5.3,5.3v17c0,2.9,2.4,5.3,5.3,5.3h17c2.9,0,5.3-2.4,5.3-5.3v-17
	C270.6,140.8,268.2,138.5,265.3,138.5z"/>
<path class="st4" d="M258.8,181.3c0.1,0,0.2,0.1,0.3,0c0.1,0,0.1-0.1,0.2-0.2c0.2-0.3,0.7-0.3,1,0c0.3,0.3,0.3,0.7,0.1,1
	c-0.2,0.3-0.5,0.5-0.9,0.6c-0.2,0.9-0.3,1.8-0.3,2.7c0.6,0,1.2,0.1,1.8,0.1c0.1,0,0.2,0,0.3-0.1c0.1-0.1,0.1-0.2,0.1-0.3
	c0.2-1,0.3-2.1,0.3-3.1c0-1-0.1-2.1-0.7-3c-0.6-1.1-3.2-2.8-4.5-1.8C255.2,178.3,257.9,180.8,258.8,181.3z"/>
<path class="st4" d="M255.2,179.8c-0.7,0.7-1.7,1.3-2.7,1.3c0-1.2,0.5-2.3,1.3-3.1c0.5-0.4,2.2-1.4,2.8-0.9
	C257.3,177.5,255.7,179.3,255.2,179.8z"/>
<polygon class="st10" points="263.2,201.1 252.1,200.6 243.5,239.2 239.5,236.7 244.3,242.6 255.8,210.9 255.6,225.3 263.4,235.6 
	263.9,239.3 264.1,240.9 265.5,240.7 265.7,235 259.7,225.3 263.9,209.1 "/>
<polygon class="st5" points="264,175.9 266.4,176.8 268.4,165.5 266.3,165.2 "/>
<polygon class="st5" points="249.8,174.4 247,175.5 244.7,165.8 246.7,165.5 "/>
<polygon class="st5" points="259.3,186.7 257.2,190.4 256.2,187 "/>
<path class="st5" d="M243.7,164.3c0,1,0.8,1.8,1.8,1.8s1.8-0.8,1.8-1.8c0-1-0.8-1.8-1.8-1.8S243.7,163.3,243.7,164.3z"/>
<path class="st5" d="M265.8,164.6c0,1,0.8,1.8,1.8,1.8s1.8-0.8,1.8-1.8c0-1-0.8-1.8-1.8-1.8S265.8,163.7,265.8,164.6z"/>
<linearGradient id="SVGID_3_" gradientUnits="userSpaceOnUse" x1="253.5036" y1="207.208" x2="247.3949" y2="222.4798">
	<stop  offset="0" style="stop-color:#241084;stop-opacity:0.8"/>
	<stop  offset="0.9896" style="stop-color:#0A5DE2;stop-opacity:0"/>
</linearGradient>
<path class="st17" d="M252.6,219.6l2.7-7.5l0.3-2.4l-3.5-9.1l-3.7,16.7C249.9,218.2,251.5,219,252.6,219.6z"/>
<g>
	<g>
		<path class="st5" d="M260.4,147.6c0,2-1.6,3.6-3.6,3.6c-2,0-3.6-1.6-3.6-3.6c0-2,1.6-3.6,3.6-3.6
			C258.7,144,260.4,145.6,260.4,147.6z"/>
		<path class="st5" d="M263.8,158.5c-0.1-3.8-3.1-6.8-6.9-6.8c-3.8,0-6.8,3-6.9,6.8H263.8z"/>
	</g>
</g>
<line class="st8" x1="229.3" y1="241.9" x2="283.4" y2="241.9"/>
<line class="st8" x1="156.7" y1="191.7" x2="210.8" y2="191.7"/>
<path class="st10" d="M100.9,103.6h-17c-2.9,0-5.3,2.4-5.3,5.3v17c0,2.9,2.4,5.3,5.3,5.3h17c2.9,0,5.3-2.4,5.3-5.3v-17
	C106.1,106,103.8,103.6,100.9,103.6z"/>
<polygon class="st5" points="85.2,175.9 83.1,154.6 80.4,131.7 82.5,131.4 87.2,153.1 94.7,153.7 102.4,131.7 104.5,132 98.8,155.5 
	99.1,175.3 "/>
<path class="st3" d="M83.7,130.5c0,1-0.8,1.8-1.8,1.8c-1,0-1.8-0.8-1.8-1.8c0-1,0.8-1.8,1.8-1.8C82.9,128.8,83.7,129.6,83.7,130.5z"
	/>
<path class="st3" d="M104.5,131.1c0,1-0.8,1.8-1.8,1.8c-1,0-1.8-0.8-1.8-1.8s0.8-1.8,1.8-1.8C103.7,129.4,104.5,130.1,104.5,131.1z"
	/>
<path class="st3" d="M95.7,146.6c0,2.5-2,4.5-4.5,4.5c-2.5,0-4.5-2-4.5-4.5c0-2.5,2-4.5,4.5-4.5C93.6,142.1,95.7,144.1,95.7,146.6z"
	/>
<path class="st4" d="M95.7,147.3c0,2.5-2,4.5-4.5,4.5c-2.5,0-4.5-2-4.5-4.5c0-2.5,2-4.5,4.5-4.5C93.6,142.8,95.7,144.8,95.7,147.3z"
	/>
<polygon class="st2" points="99.1,175.3 97.1,208.1 94.8,208.1 92.9,175.6 90.8,175.7 89.6,208.9 87.9,208.8 85.2,175.9 84.8,171.9 
	99.1,172.1 "/>
<polygon class="st2" points="97.1,208.1 102,208.6 101.9,209.4 94.6,209.4 94.8,208.1 "/>
<polygon class="st2" points="89.6,208.9 89.6,209.8 82.8,210.1 82.8,209.2 87.9,208.8 "/>
<line class="st8" x1="74.8" y1="209.9" x2="114.7" y2="209.9"/>
<path class="st13" d="M152.7,217.7c0,0.1,0,0.1,0,0.2c0,0,0,0,0,0c0,0,0,0.1-0.1,0.1c0,0,0,0,0,0c0,0.1-0.1,0.1-0.1,0.2c0,0,0,0,0,0
	c0,0-0.1,0.1-0.1,0.1c0,0,0,0,0,0c-0.1,0-0.1,0.1-0.2,0.1c0,0,0,0-0.1,0c-0.1,0-0.1,0.1-0.2,0.1c0,0,0,0-0.1,0
	c-0.1,0-0.1,0.1-0.2,0.1c0,0-0.1,0-0.1,0c-0.1,0-0.2,0.1-0.4,0.1l-12.1,4.2c-0.1,0-0.2,0.1-0.4,0.1c-0.2,0.1-0.4,0.1-0.5,0.1
	c-0.2,0.1-0.5,0.1-0.7,0.1c-0.1,0-0.3,0-0.5,0.1c-0.2,0-0.4,0-0.6,0.1c0,0-0.1,0-0.1,0c-0.3,0-0.6,0-0.9,0c0,0,0,0,0,0
	c-0.3,0-0.7,0-1,0c0,0,0,0,0,0c-0.3,0-0.6-0.1-1-0.1c0,0,0,0,0,0c-0.3,0-0.6-0.1-0.9-0.2c0,0,0,0,0,0c-0.3-0.1-0.6-0.1-0.8-0.2
	l-12-4.1c-0.1,0-0.1,0-0.2-0.1c-0.1,0-0.1,0-0.2-0.1c-0.1,0-0.1,0-0.2-0.1c0,0-0.1,0-0.1-0.1c0,0-0.1,0-0.1-0.1c0,0-0.1-0.1-0.1-0.1
	c0,0-0.1,0-0.1-0.1c0,0-0.1-0.1-0.1-0.1c0,0-0.1-0.1-0.1-0.1c0,0-0.1-0.1-0.1-0.1c0,0-0.1-0.1-0.1-0.1c0,0,0,0,0-0.1
	c0,0,0-0.1,0-0.1c0-0.1-0.1-0.2-0.1-0.3l0,5.3c0,0.1,0,0.2,0.1,0.3c0,0,0,0.1,0,0.1c0,0,0,0,0,0.1c0,0,0,0.1,0.1,0.1
	c0,0,0,0,0.1,0.1c0,0,0.1,0.1,0.1,0.1c0,0,0.1,0,0.1,0.1c0,0,0.1,0.1,0.1,0.1c0,0,0.1,0,0.1,0.1c0.1,0,0.1,0.1,0.2,0.1
	c0,0,0.1,0,0.1,0.1c0.1,0,0.1,0.1,0.2,0.1c0,0,0.1,0,0.1,0.1c0.1,0,0.1,0.1,0.2,0.1c0,0,0,0,0,0l12,4.1c0.1,0,0.3,0.1,0.4,0.1
	c0.1,0,0.2,0.1,0.4,0.1c0,0,0,0,0,0c0,0,0,0,0,0c0.1,0,0.2,0,0.3,0.1c0.1,0,0.2,0,0.3,0.1c0.1,0,0.2,0,0.3,0c0,0,0,0,0,0
	c0,0,0,0,0,0c0.1,0,0.2,0,0.3,0c0.1,0,0.2,0,0.3,0c0.1,0,0.2,0,0.3,0c0,0,0,0,0,0c0,0,0,0,0,0c0.1,0,0.2,0,0.3,0c0.1,0,0.2,0,0.3,0
	c0.1,0,0.2,0,0.3,0c0,0,0,0,0,0c0,0,0,0,0,0c0.1,0,0.2,0,0.4,0c0.1,0,0.3,0,0.4,0c0.1,0,0.1,0,0.2,0c0,0,0.1,0,0.1,0
	c0.1,0,0.1,0,0.2,0c0.1,0,0.2,0,0.4,0c0.2,0,0.3,0,0.5-0.1c0,0,0.1,0,0.1,0c0.2,0,0.3-0.1,0.5-0.1c0,0,0,0,0.1,0
	c0.2,0,0.4-0.1,0.6-0.1c0.1,0,0.2,0,0.3-0.1c0,0,0.1,0,0.1,0l12.1-4.2c0.1,0,0.2-0.1,0.3-0.1c0,0,0,0,0,0c0,0,0.1,0,0.1,0
	c0.1,0,0.1-0.1,0.2-0.1c0,0,0,0,0,0c0,0,0.1,0,0.1,0c0,0,0.1,0,0.1-0.1c0,0,0.1,0,0.1,0c0,0,0,0,0.1,0c0,0,0,0,0,0
	c0.1,0,0.1-0.1,0.1-0.1c0,0,0,0,0,0c0,0,0,0,0,0c0,0,0.1-0.1,0.1-0.1c0,0,0,0,0-0.1c0,0,0,0,0,0c0,0,0,0,0,0c0,0,0.1-0.1,0.1-0.1
	c0,0,0,0,0,0c0,0,0,0,0,0c0,0,0,0,0-0.1c0,0,0,0,0-0.1c0,0,0,0,0,0c0,0,0,0,0,0c0,0,0-0.1,0-0.1c0,0,0,0,0,0L152.7,217.7z"/>
<g>
	<path class="st3" d="M151.2,216.5c2,0.7,2,1.8-0.1,2.6l-12.1,4.2c-2.1,0.7-5.4,0.7-7.4,0l-12-4.1c-2-0.7-2-1.8,0.1-2.6l12.1-4.2
		c2.1-0.7,5.4-0.7,7.5,0L151.2,216.5z"/>
</g>
<g>
	<path class="st4" d="M199.7,213.2c0,0.1,0,0.1,0,0.2c0,0,0,0,0,0c0,0,0,0.1-0.1,0.1c0,0,0,0,0,0c0,0.1-0.1,0.1-0.1,0.2c0,0,0,0,0,0
		c0,0-0.1,0.1-0.1,0.1c0,0,0,0,0,0c-0.1,0-0.1,0.1-0.2,0.1c0,0,0,0-0.1,0c-0.1,0-0.1,0.1-0.2,0.1c0,0,0,0-0.1,0
		c-0.1,0-0.1,0.1-0.2,0.1c0,0-0.1,0-0.1,0c-0.1,0-0.2,0.1-0.4,0.1l-12.1,4.2c-0.1,0-0.2,0.1-0.4,0.1c-0.2,0.1-0.4,0.1-0.5,0.1
		c-0.2,0.1-0.5,0.1-0.7,0.1c-0.1,0-0.3,0-0.5,0.1c-0.2,0-0.4,0-0.6,0.1c0,0-0.1,0-0.1,0c-0.3,0-0.6,0-0.9,0c0,0,0,0,0,0
		c-0.3,0-0.7,0-1,0c0,0,0,0,0,0c-0.3,0-0.6-0.1-1-0.1c0,0,0,0,0,0c-0.3,0-0.6-0.1-0.9-0.2c0,0,0,0,0,0c-0.3-0.1-0.6-0.1-0.8-0.2
		l-12-4.1c-0.1,0-0.1,0-0.2-0.1c-0.1,0-0.1,0-0.2-0.1c-0.1,0-0.1,0-0.2-0.1c0,0-0.1,0-0.1-0.1c0,0-0.1,0-0.1-0.1
		c0,0-0.1-0.1-0.1-0.1c0,0-0.1,0-0.1-0.1c0,0-0.1-0.1-0.1-0.1c0,0-0.1-0.1-0.1-0.1c0,0-0.1-0.1-0.1-0.1c0,0-0.1-0.1-0.1-0.1
		c0,0,0,0,0-0.1c0,0,0-0.1,0-0.1c0-0.1-0.1-0.2-0.1-0.3l0,5.3c0,0.1,0,0.2,0.1,0.3c0,0,0,0.1,0,0.1c0,0,0,0,0,0.1c0,0,0,0.1,0.1,0.1
		c0,0,0,0,0.1,0.1c0,0,0.1,0.1,0.1,0.1c0,0,0.1,0,0.1,0.1c0,0,0.1,0.1,0.1,0.1c0,0,0.1,0,0.1,0.1c0.1,0,0.1,0.1,0.2,0.1
		c0,0,0.1,0,0.1,0.1c0.1,0,0.1,0.1,0.2,0.1c0,0,0.1,0,0.1,0.1c0.1,0,0.1,0.1,0.2,0.1c0,0,0,0,0,0l12,4.1c0.1,0,0.3,0.1,0.4,0.1
		c0.1,0,0.2,0.1,0.4,0.1c0,0,0,0,0,0c0,0,0,0,0,0c0.1,0,0.2,0,0.3,0.1c0.1,0,0.2,0,0.3,0.1c0.1,0,0.2,0,0.3,0c0,0,0,0,0,0
		c0,0,0,0,0,0c0.1,0,0.2,0,0.3,0c0.1,0,0.2,0,0.3,0c0.1,0,0.2,0,0.3,0c0,0,0,0,0,0c0,0,0,0,0,0c0.1,0,0.2,0,0.3,0c0.1,0,0.2,0,0.3,0
		c0.1,0,0.2,0,0.3,0c0,0,0,0,0,0c0,0,0,0,0,0c0.1,0,0.2,0,0.4,0c0.1,0,0.3,0,0.4,0c0.1,0,0.1,0,0.2,0c0,0,0.1,0,0.1,0
		c0.1,0,0.1,0,0.2,0c0.1,0,0.2,0,0.4,0c0.2,0,0.3,0,0.5-0.1c0,0,0.1,0,0.1,0c0.2,0,0.3-0.1,0.5-0.1c0,0,0,0,0.1,0
		c0.2,0,0.4-0.1,0.6-0.1c0.1,0,0.2,0,0.3-0.1c0,0,0.1,0,0.1,0l12.1-4.2c0.1,0,0.2-0.1,0.3-0.1c0,0,0,0,0,0c0,0,0.1,0,0.1,0
		c0.1,0,0.1-0.1,0.2-0.1c0,0,0,0,0,0c0,0,0.1,0,0.1,0c0,0,0.1,0,0.1-0.1c0,0,0.1,0,0.1,0c0,0,0,0,0.1,0c0,0,0,0,0,0
		c0.1,0,0.1-0.1,0.1-0.1c0,0,0,0,0,0c0,0,0,0,0,0c0,0,0.1-0.1,0.1-0.1c0,0,0,0,0-0.1c0,0,0,0,0,0c0,0,0,0,0,0c0,0,0.1-0.1,0.1-0.1
		c0,0,0,0,0,0c0,0,0,0,0,0c0,0,0,0,0-0.1c0,0,0,0,0-0.1c0,0,0,0,0,0c0,0,0,0,0,0c0,0,0-0.1,0-0.1c0,0,0,0,0,0L199.7,213.2z"/>
	<g>
		<path class="st2" d="M198.2,211.9c2,0.7,2,1.8-0.1,2.6l-12.1,4.2c-2.1,0.7-5.4,0.7-7.4,0l-12-4.1c-2-0.7-2-1.8,0.1-2.6l12.1-4.2
			c2.1-0.7,5.4-0.7,7.5,0L198.2,211.9z"/>
	</g>
</g>
</svg>
